<?xml version="1.0" encoding="utf-8"?><svg xmlns="http://www.w3.org/2000/svg" xmlns:xlink="http://www.w3.org/1999/xlink"><symbol class="aasvg-inline--fa aafa-angle-down aafa-w-10" viewBox="0 0 320 512" id="angle-down" xmlns="http://www.w3.org/2000/svg"><path d="M143 352.3L7 216.3c-9.4-9.4-9.4-24.6 0-33.9l22.6-22.6c9.4-9.4 24.6-9.4 33.9 0l96.4 96.4 96.4-96.4c9.4-9.4 24.6-9.4 33.9 0l22.6 22.6c9.4 9.4 9.4 24.6 0 33.9l-136 136c-9.2 9.4-24.4 9.4-33.8 0z"/></symbol><symbol class="absvg-inline--fa abfa-angle-down abfa-w-10" viewBox="0 0 320 512" id="angle-down-solid" xmlns="http://www.w3.org/2000/svg"><path d="M143 352.3L7 216.3c-9.4-9.4-9.4-24.6 0-33.9l22.6-22.6c9.4-9.4 24.6-9.4 33.9 0l96.4 96.4 96.4-96.4c9.4-9.4 24.6-9.4 33.9 0l22.6 22.6c9.4 9.4 9.4 24.6 0 33.9l-136 136c-9.2 9.4-24.4 9.4-33.8 0z"/></symbol><symbol class="acsvg-inline--fa acfa-angle-up acfa-w-10" viewBox="0 0 320 512" id="angle-up-solid" xmlns="http://www.w3.org/2000/svg"><path d="M177 159.7l136 136c9.4 9.4 9.4 24.6 0 33.9l-22.6 22.6c-9.4 9.4-24.6 9.4-33.9 0L160 255.9l-96.4 96.4c-9.4 9.4-24.6 9.4-33.9 0L7 329.7c-9.4-9.4-9.4-24.6 0-33.9l136-136c9.4-9.5 24.6-9.5 34-.1z"/></symbol><symbol viewBox="0 0 512 512" id="arrow_left" xmlns="http://www.w3.org/2000/svg"><path d="M432 240H112.808l122.224-116.416c6.4-6.096 6.648-16.224.552-22.624-6.088-6.392-16.216-6.648-22.624-.552L73.376 233.368C67.336 239.416 64 247.448 64 256c0 8.544 3.336 16.584 9.656 22.896l139.312 132.688A15.929 15.929 0 00224 416c4.224 0 8.448-1.664 11.592-4.968 6.096-6.4 5.848-16.52-.552-22.616L112.304 272H432c8.832 0 16-7.168 16-16s-7.168-16-16-16z"/></symbol><symbol viewBox="0 0 512 512" id="arrow_right" xmlns="http://www.w3.org/2000/svg"><path d="M80 271.996h319.192L276.968 388.412c-6.4 6.096-6.648 16.224-.552 22.624 6.088 6.392 16.216 6.648 22.624.552l139.584-132.96c6.04-6.048 9.376-14.08 9.376-22.632 0-8.544-3.336-16.584-9.656-22.896L299.032 100.412A15.929 15.929 0 00288 95.996a15.958 15.958 0 00-11.592 4.968c-6.096 6.4-5.848 16.52.552 22.616l122.736 116.416H80c-8.832 0-16 7.168-16 16s7.168 16 16 16z"/></symbol><symbol viewBox="0 0 512 512" id="delivery-truck" xmlns="http://www.w3.org/2000/svg"><path d="M509.5 256.4l-59.4-67.8c-1.9-2.2-4.7-3.5-7.7-3.5H393v-41.9c0-5.6-4.6-10.2-10.2-10.2H172.1c-5.6 0-10.2 4.6-10.2 10.2V157H63.8c-5.6 0-10.2 4.6-10.2 10.2s4.6 10.2 10.2 10.2h98.1v132.2h-59c-5.6 0-10.2 4.6-10.2 10.2s4.6 10.2 10.2 10.2h59v10.4c0 5.6 4.6 10.2 10.2 10.2h21.3c4.5 16.3 19.5 28.4 37.2 28.4s32.7-12 37.2-28.4h136.1c4.5 16.3 19.5 28.4 37.2 28.4 17.7 0 32.7-12 37.2-28.4h23.5c5.6 0 10.2-4.6 10.2-10.2v-77.3c0-2.5-.9-4.8-2.5-6.7zM230.6 358.6c-10 0-18.2-8.2-18.2-18.2s8.2-18.2 18.2-18.2 18.2 8.2 18.2 18.2-8.2 18.2-18.2 18.2zm37.2-28.4c-4.5-16.3-19.5-28.4-37.2-28.4s-32.7 12-37.2 28.4h-11.1V153.4h190.2v176.7H267.8zm173.3 28.4c-10 0-18.2-8.2-18.2-18.2s8.2-18.2 18.2-18.2 18.2 8.2 18.2 18.2-8.2 18.2-18.2 18.2zm50.5-28.4h-13.3c-4.5-16.3-19.5-28.4-37.2-28.4-17.7 0-32.7 12-37.2 28.4H393V205.5h44.8l53.8 61.4v63.3zM69.3 309.6h-5.4c-5.6 0-10.2 4.6-10.2 10.2S58.2 330 63.8 330h5.4c5.6 0 10.2-4.6 10.2-10.2s-4.5-10.2-10.1-10.2z"/><path d="M119.5 232.3H10.2c-5.6 0-10.2 4.6-10.2 10.2s4.6 10.2 10.2 10.2h109.3c5.6 0 10.2-4.6 10.2-10.2s-4.6-10.2-10.2-10.2z"/></symbol><symbol class="agsvg-inline--fa agfa-facebook-f agfa-w-10" viewBox="0 0 320 512" id="facebook" xmlns="http://www.w3.org/2000/svg"><path d="M279.14 288l14.22-92.66h-88.91v-60.13c0-25.35 12.42-50.06 52.24-50.06h40.42V6.26S260.43 0 225.36 0c-73.22 0-121.08 44.38-121.08 124.72v70.62H22.89V288h81.39v224h100.17V288z"/></symbol><symbol viewBox="0 0 511 511" id="head_call" xmlns="http://www.w3.org/2000/svg"><path d="M340.33 187.637a19.899 19.899 0 01-14.078-5.813c-7.813-7.774-7.848-20.413-.07-28.226L427.718 51.536c7.778-7.817 20.413-7.844 28.23-.07s7.848 20.413.074 28.226l-101.54 102.062a19.913 19.913 0 01-14.152 5.883zm47.922 52.218l111.781-48.904c10.097-4.417 14.706-16.187 10.285-26.288-4.417-10.097-16.183-14.702-26.288-10.285l-111.777 48.904c-10.101 4.417-14.706 16.187-10.288 26.288 3.279 7.493 10.608 11.965 18.3 11.965 2.669 0 5.383-.542 7.987-1.68zM300.65 135.937L349.554 27.15c4.518-10.055.031-21.867-10.023-26.39-10.051-4.519-21.867-.031-26.39 10.023l-48.9 108.787c-4.522 10.055-.035 21.867 10.019 26.39a19.91 19.91 0 008.172 1.758c7.618.001 14.892-4.381 18.218-11.781zm190.658 329.64c.257-.257.511-.519.752-.791l.503-.561c13.212-14.717 20.093-33.707 19.38-53.473-.71-19.766-8.943-38.21-23.181-51.941-27.875-26.881-51.232-42.398-73.501-48.83-30.694-8.873-59.115-.803-84.475 23.969-.039.035-.078.074-.117.113l-26.986 26.784c-16.862-9.505-49.661-30.382-85.091-65.813l-2.628-2.628c-35.438-35.438-56.316-68.238-65.813-85.084l26.787-26.99c.039-.039.074-.078.113-.113 24.772-25.364 32.838-53.789 23.969-84.475-6.433-22.269-21.949-45.626-48.834-73.501C138.46 8.004 120.015-.23 100.249-.943c-19.766-.71-38.756 6.167-53.477 19.383l-.573.515c-.265.238-.526.483-.78.737C16.121 48.994.76 90.015 1.002 138.319c.409 82.062 45.509 175.906 120.643 251.036 14.168 14.168 30.269 28.191 47.856 41.672 8.749 6.706 21.279 5.057 27.984-3.696 6.71-8.749 5.057-21.275-3.696-27.984-16.199-12.425-30.978-25.283-43.914-38.218C82.011 293.266 41.279 209.898 40.924 138.12c-.187-37.205 11.002-68.253 32.366-89.836l.152-.136c14.507-13.025 36.472-12.234 50.012 1.801 51.684 53.606 47.934 78.904 25.088 102.323l-36.99 37.267a19.963 19.963 0 00-4.066 22.183c.936 2.109 23.661 52.323 80.257 108.92l2.624 2.624c56.588 56.588 106.803 79.31 108.912 80.249a19.962 19.962 0 0022.183-4.066l37.275-36.994c23.419-22.842 48.721-26.589 102.319 25.092 14.031 13.536 14.823 35.501 1.793 50.023l-.133.148c-21.411 21.185-52.128 32.362-88.924 32.362-.304 0-.608 0-.912-.004-29.411-.144-63.473-8.21-98.495-23.314-10.121-4.366-21.867.3-26.234 10.421-4.366 10.125.3 21.867 10.421 26.234 40.483 17.462 78.877 26.405 114.109 26.581.374.004.745.004 1.119.004 47.82 0 88.436-15.349 117.508-44.425z"/></symbol><symbol viewBox="0 0 512 512" id="head_discount" xmlns="http://www.w3.org/2000/svg"><path d="M292 380c0-16.569 13.431-30 30-30s30 13.431 30 30-13.431 30-30 30-30-13.431-30-30zm116.655-225.645C390.969 129.396 377 109.681 377 86c0-11.046-9.954-20-21-20-4.625 0-10.106 1.603-13.683 4.536-5.252 4.307-28.025 25.979-52.085 58.2C271.802 102.931 264 69.54 264 20c0-11.046-10.954-20-22-20-3.785 0-9.412 1.074-12.611 3.098-19.628 12.416-63.227 46.413-102.132 95.075-23.307 29.152-41.796 59.594-54.955 90.479C56.176 226.503 48 265.213 48 303.708 48 418.561 141.309 512 256 512c52.621 0 100.471-18.027 138.377-52.132 8.211-7.388 8.879-20.033 1.491-28.245-7.387-8.211-20.034-8.878-28.245-1.491C337.18 457.522 298.582 472 256 472c-92.636 0-168-75.496-168-168.292 0-61.296 23.719-122.044 70.5-180.557 22.917-28.665 47.736-51.835 66.883-67.478 3.625 41.577 15.836 84.718 52.852 119.836a20.002 20.002 0 0030.469-3.51c12.313-18.699 25.299-34.782 35.988-46.882 7.369 18.552 19.143 35.169 31.326 52.363 22.907 32.328 46.62 68.334 47.971 123.179.006.084.011.188.012.34.097 15.529-2.849 34.063-7.24 49.54-3.016 10.626 3.154 21.685 13.78 24.7s21.685-3.154 24.7-13.78C460.121 344.262 464 321 464 303c0-70.537-30.687-113.846-55.345-148.645zM177.272 405.428A19.923 19.923 0 00189.989 410c5.764 0 11.484-2.479 15.439-7.273l132-160c7.029-8.52 5.82-21.125-2.7-28.155-8.52-7.028-21.125-5.82-28.155 2.7l-132 160c-7.03 8.52-5.821 21.126 2.699 28.156zM220 240c0-16.569-13.431-30-30-30s-30 13.431-30 30 13.431 30 30 30 30-13.431 30-30z"/></symbol><symbol viewBox="0 0 512.001 512.001" id="head_question" xmlns="http://www.w3.org/2000/svg"><path d="M252.692 139.985c-47.057 0-68.668 27.89-68.668 46.715 0 13.597 11.502 19.872 20.914 19.872 18.822 0 11.154-26.844 46.708-26.844 17.429 0 31.372 7.671 31.372 23.707 0 18.826-19.52 29.633-31.023 39.394-10.108 8.716-23.354 23.01-23.354 52.991 0 18.128 4.879 23.357 19.171 23.357 17.079 0 20.565-7.669 20.565-14.293 0-18.129.349-28.588 19.52-43.578 9.412-7.321 39.04-31.028 39.04-63.798s-29.629-57.522-74.245-57.523zm-4.532 203.247c-14.639 0-26.491 12.202-26.491 26.844 0 14.293 11.503 26.844 26.491 26.844S275 384.37 275 370.076c0-14.642-12.201-26.844-26.84-26.844z"/><path d="M447.717 97.795L297.208 10.994c-25.417-14.659-56.997-14.659-82.414 0L64.285 97.795c-25.465 14.686-41.284 42.072-41.284 71.472v173.467c0 29.399 15.819 56.786 41.284 71.472l150.509 86.801c25.412 14.657 56.993 14.661 82.414 0l150.509-86.801c25.465-14.687 41.284-42.073 41.284-71.473V169.267c0-29.4-15.819-56.786-41.284-71.472zm1.284 244.938c0 15.144-8.148 29.25-21.266 36.815l-150.509 86.801c-13.093 7.55-29.358 7.55-42.451 0l-150.508-86.8c-13.118-7.565-21.266-21.672-21.266-36.816V169.267c0-15.144 8.148-29.25 21.266-36.815l150.509-86.801c13.095-7.551 29.358-7.55 42.451 0l150.509 86.801c13.117 7.564 21.265 21.671 21.265 36.815v173.466z"/></symbol><symbol viewBox="0 0 313.535 313.535" id="house" xmlns="http://www.w3.org/2000/svg"><path d="M7.337 177.353c2.714 1.795 5.847 2.687 8.98 2.687s6.266-.897 8.98-2.687a16.191 16.191 0 002.556-2.094l10.639-10.639v74.515c0 32.841 29.028 60.591 63.387 60.591h114.868c33.668 0 61.064-27.184 61.064-60.591v-71.741l7.87 7.87c3.182 3.187 7.365 4.781 11.536 4.781s8.354-1.594 11.536-4.781c6.375-6.369 6.375-16.703 0-23.073L179.843 23.269c-11.928-11.922-30.78-12.526-43.583-2.094-.859.696-1.768 1.3-2.567 2.094L4.781 152.186c-6.375 6.369-6.375 16.703 0 23.073a16.303 16.303 0 002.556 2.094zm237.84-42.599V239.13c0 15.414-12.755 27.957-28.43 27.957H101.879c-16.382.005-30.752-13.059-30.752-27.951v-107.15l85.644-85.638 88.406 88.406z"/></symbol><symbol viewBox="0 0 512 512" id="info" xmlns="http://www.w3.org/2000/svg"><path d="M20 512c-5.1 0-10.1-1.9-13.9-5.6-5.8-5.7-7.7-14.3-4.6-21.9l45.4-112.3C16.2 332.3 0 285.4 0 236c0-63.4 26.9-122.9 75.6-167.5C123.9 24.3 188 0 256 0s132.1 24.3 180.4 68.5C485.1 113.1 512 172.6 512 236c0 45.4-14 89.6-40.6 127.6-6.3 9.1-18.8 11.3-27.8 4.9s-11.3-18.8-4.9-27.8C460.5 309.4 472 273.2 472 236c0-108.1-96.9-196-216-196S40 127.9 40 236c0 43.8 15.6 85.2 45 119.8 4.8 5.7 6.1 13.6 3.3 20.5L57 453.8l91.3-40.3c5.1-2.2 10.8-2.3 15.9-.1 28.8 12.3 59.7 18.5 91.7 18.5 36.9 0 73.3-8.6 105.3-24.8 9.9-5 21.9-1.1 26.9 8.8 5 9.8 1.1 21.9-8.8 26.9C341.8 461.9 299.2 472 256 472c-34.5 0-67.8-6.2-99.3-18.4L28.1 510.3c-2.6 1.1-5.4 1.7-8.1 1.7zm256-187V217c0-11-9-20-20-20s-20 9-20 20v108c0 11 9 20 20 20s20-9 20-20zm-20-197c-11 0-20 9-20 20s9 20 20 20 20-9 20-20-9-20-20-20z"/></symbol><symbol class="amsvg-inline--fa amfa-instagram amfa-w-14" viewBox="0 0 448 512" id="instagram" xmlns="http://www.w3.org/2000/svg"><path d="M224.1 141c-63.6 0-114.9 51.3-114.9 114.9s51.3 114.9 114.9 114.9S339 319.5 339 255.9 287.7 141 224.1 141zm0 189.6c-41.1 0-74.7-33.5-74.7-74.7s33.5-74.7 74.7-74.7 74.7 33.5 74.7 74.7-33.6 74.7-74.7 74.7zm146.4-194.3c0 14.9-12 26.8-26.8 26.8-14.9 0-26.8-12-26.8-26.8s12-26.8 26.8-26.8 26.8 12 26.8 26.8zm76.1 27.2c-1.7-35.9-9.9-67.7-36.2-93.9-26.2-26.2-58-34.4-93.9-36.2-37-2.1-147.9-2.1-184.9 0-35.8 1.7-67.6 9.9-93.9 36.1s-34.4 58-36.2 93.9c-2.1 37-2.1 147.9 0 184.9 1.7 35.9 9.9 67.7 36.2 93.9s58 34.4 93.9 36.2c37 2.1 147.9 2.1 184.9 0 35.9-1.7 67.7-9.9 93.9-36.2 26.2-26.2 34.4-58 36.2-93.9 2.1-37 2.1-147.8 0-184.8zM398.8 388c-7.8 19.6-22.9 34.7-42.6 42.6-29.5 11.7-99.5 9-132.1 9s-102.7 2.6-132.1-9c-19.6-7.8-34.7-22.9-42.6-42.6-11.7-29.5-9-99.5-9-132.1s-2.6-102.7 9-132.1c7.8-19.6 22.9-34.7 42.6-42.6 29.5-11.7 99.5-9 132.1-9s102.7-2.6 132.1 9c19.6 7.8 34.7 22.9 42.6 42.6 11.7 29.5 9 99.5 9 132.1s2.7 102.7-9 132.1z"/></symbol><symbol viewBox="0 0 512 512" id="left-arrow" xmlns="http://www.w3.org/2000/svg"><path d="M80 272h319.2L277 388.4c-6.4 6.1-6.6 16.2-.6 22.6 6.1 6.4 16.2 6.6 22.6.6l139.6-133c6-6 9.4-14.1 9.4-22.6 0-8.5-3.3-16.6-9.7-22.9L299 100.4c-3.1-3-7.1-4.4-11-4.4-4.2 0-8.4 1.7-11.6 5-6.1 6.4-5.8 16.5.6 22.6L399.7 240H80c-8.8 0-16 7.2-16 16s7.2 16 16 16z"/></symbol><symbol class="aosvg-inline--fa aofa-long-arrow-alt-down aofa-w-8" viewBox="0 0 256 512" id="long-arrow" xmlns="http://www.w3.org/2000/svg"><path d="M168 345.941V44c0-6.627-5.373-12-12-12h-56c-6.627 0-12 5.373-12 12v301.941H41.941c-21.382 0-32.09 25.851-16.971 40.971l86.059 86.059c9.373 9.373 24.569 9.373 33.941 0l86.059-86.059c15.119-15.119 4.411-40.971-16.971-40.971H168z"/></symbol><symbol class="apsvg-inline--fa apfa-long-arrow-alt-down apfa-w-8" viewBox="0 0 256 512" id="long-arrow-alt-down-solid" xmlns="http://www.w3.org/2000/svg"><path d="M168 345.941V44c0-6.627-5.373-12-12-12h-56c-6.627 0-12 5.373-12 12v301.941H41.941c-21.382 0-32.09 25.851-16.971 40.971l86.059 86.059c9.373 9.373 24.569 9.373 33.941 0l86.059-86.059c15.119-15.119 4.411-40.971-16.971-40.971H168z"/></symbol><symbol viewBox="0 0 512 512" id="mail" xmlns="http://www.w3.org/2000/svg"><path d="M509.3 106.6c-.1-.3-.2-.5-.3-.7-.1-.3-.2-.6-.3-1-.1-.3-.2-.6-.4-.9-.1-.3-.2-.6-.4-.9-.1-.3-.3-.6-.4-.9-.1-.3-.3-.6-.4-.9-.1-.3-.3-.6-.4-.9-.1-.3-.3-.6-.4-.9-.1-.3-.3-.6-.5-.9-.2-.3-.3-.6-.5-.9-.2-.3-.3-.6-.5-.8-.2-.3-.3-.6-.5-.9-.2-.3-.3-.5-.5-.8-.2-.3-.4-.6-.5-.8-.2-.3-.4-.5-.5-.8-.2-.3-.4-.6-.6-.8-.2-.3-.4-.5-.6-.8-.2-.3-.4-.5-.6-.8-.2-.2-.4-.5-.6-.7-.2-.3-.4-.5-.6-.8-.2-.2-.4-.5-.6-.7-.2-.3-.4-.5-.7-.8-.2-.2-.4-.4-.6-.7l-.7-.7c-.2-.2-.4-.4-.7-.6l-.7-.7c-.2-.2-.5-.4-.7-.6-.3-.2-.5-.5-.8-.7-.2-.2-.5-.4-.7-.6-.3-.2-.5-.4-.8-.6-.2-.2-.5-.4-.7-.6-.3-.2-.5-.4-.8-.6-.2-.2-.5-.3-.7-.5-.3-.2-.6-.4-.8-.6-.3-.2-.5-.3-.8-.5-.3-.2-.6-.4-.8-.5-.3-.2-.5-.3-.8-.5-.3-.2-.6-.3-.9-.5-.3-.2-.5-.3-.8-.4-.3-.2-.6-.3-.9-.5-.3-.1-.6-.3-.8-.4-.3-.1-.6-.3-.9-.4-.3-.1-.6-.3-.9-.4-.3-.1-.6-.3-.9-.4-.3-.1-.6-.2-.9-.4-.3-.1-.6-.2-.9-.4l-.9-.3-.9-.3-.9-.3-.9-.3c-.3-.1-.6-.2-1-.3-.3-.1-.6-.2-.9-.2-.3-.1-.7-.1-1-.2-.3-.1-.6-.1-.9-.2-.3-.1-.7-.1-1.1-.2-.3-.1-.6-.1-.9-.2-.4-.1-.7-.1-1.1-.2-.3 0-.6-.1-.9-.1-.4 0-.8-.1-1.2-.1-.3 0-.5-.1-.8-.1-.4 0-.9-.1-1.3-.1H47.4c-.4 0-.9 0-1.3.1-.3 0-.5.1-.8.1-.4 0-.8.1-1.2.1-.3 0-.6.1-.9.1-.4.1-.7.1-1.1.2-.3 0-.6.1-.9.2-.4.1-.7.1-1.1.2-.3.1-.6.1-.9.2-.3.1-.7.1-1 .2-.3.1-.6.2-.9.2-.3.1-.6.2-1 .3l-.9.3-.9.3-.9.3-.9.3c-.3.1-.6.2-.9.4-.3.1-.6.2-.9.4-.3.1-.6.3-.9.4-.3.1-.6.2-.9.4-.3.1-.6.3-.9.4-.3.1-.6.3-.8.4-.3.2-.6.3-.9.5-.3.1-.5.3-.8.4-.3.2-.6.3-.9.5-.3.2-.5.3-.8.5-.3.2-.6.4-.8.5-.3.2-.5.3-.8.5-.3.2-.6.4-.8.6-.2.2-.5.3-.7.5-.3.2-.5.4-.8.6-.2.2-.5.4-.7.6-.3.2-.5.4-.8.6-.2.2-.5.4-.7.6-.3.2-.5.4-.8.7-.2.2-.5.4-.7.6l-.7.7c-.2.2-.4.4-.7.6l-.7.7c-.2.2-.4.4-.6.7-.2.2-.4.5-.7.8-.2.2-.4.5-.6.7-.2.3-.4.5-.6.8-.2.2-.4.5-.6.7-.2.3-.4.5-.6.8-.2.2-.4.5-.6.7-.2.3-.4.5-.6.8-.2.3-.4.5-.5.8-.2.3-.4.6-.5.8-.4.3-.6.6-.8.9-.2.3-.3.6-.5.9-.2.3-.3.6-.5.8-.2.3-.3.6-.5.9-.2.3-.3.6-.5.9-.2.3-.3.6-.4.9-.1.3-.3.6-.4.9-.1.3-.3.6-.4.9-.1.3-.3.6-.4.9-.1.3-.2.6-.4.9-.1.3-.2.6-.4.9-.1.3-.2.6-.3 1-.1.2-.2.5-.3.7C.9 111.5 0 116.8 0 122.4v267.1c0 27 21.5 49 48.2 50h414c21.9 0 41-13.9 47.5-34.7.3-.8.4-1.6.6-2.4 1.1-4.1 1.7-8.5 1.7-13v-267c0-5.6-.9-10.9-2.7-15.8zm-469.4 2.7c.2-.2.4-.3.6-.5.2-.1.3-.2.5-.3.2-.1.4-.3.7-.4.2-.1.3-.2.5-.3.2-.1.5-.2.7-.4.2-.1.4-.2.5-.2.2-.1.5-.2.7-.3.2-.1.4-.1.5-.2.3-.1.5-.2.8-.2.2-.1.4-.1.5-.2.3-.1.5-.1.8-.2.2 0 .4-.1.5-.1.3-.1.6-.1.9-.1.2 0 .3 0 .5-.1.5 0 .9-.1 1.4-.1h411.8c.5 0 .9 0 1.4.1.2 0 .3 0 .5.1.3 0 .6.1.9.1.2 0 .4.1.5.1.3.1.5.1.8.2.2 0 .4.1.5.2.3.1.5.2.8.2.2.1.4.1.5.2.2.1.5.2.7.3.2.1.4.2.5.2.2.1.5.2.7.4.2.1.3.2.5.3.2.1.4.3.7.4.2.1.3.2.5.3.2.2.4.3.6.5l.3.3-204.4 204.6c-3.1 3.1-7.3 4.9-11.8 4.9-4.5 0-8.6-1.7-11.8-4.9L39.6 109.6l.3-.3zm-6.5 41.3l105.5 105.5L33.4 361.7V150.6zm428.5 255.7H50.4c-3.9 0-7.6-1.4-10.5-3.8l122.7-122.7 58.1 58.1c9.5 9.5 22 14.7 35.4 14.7 13.4 0 26-5.2 35.4-14.7l58.3-58.3 122.9 122.9c-3 2.3-6.7 3.8-10.8 3.8zm16.7-45.2L373.4 255.9l105.3-105.3-.1 210.5z"/></symbol><symbol viewBox="0 0 512 512" id="monitor" xmlns="http://www.w3.org/2000/svg"><path d="M328 256c57.438 0 104-46.562 104-104S385.438 48 328 48 224 94.562 224 152c.066 57.41 46.59 103.934 104 104zm0-192c48.601 0 88 39.399 88 88s-39.399 88-88 88-88-39.399-88-88c.057-48.577 39.423-87.943 88-88z"/><path d="M272 152c.035-30.913 25.087-55.965 56-56V80c-39.744.048-71.952 32.256-72 72h16zm48 184h16v16h-16v-16zm0 32h16v96h-16v-96z"/><path d="M472 64h-40.48C383.121 6.827 297.539-.285 240.366 48.114A135.652 135.652 0 00224.48 64H40c-13.238.04-23.96 10.762-24 24v288c.04 13.238 10.762 23.96 24 24h168v48h-48c-13.238.04-23.96 10.762-24 24v16a8 8 0 008 8h184c22.091 0 40-17.909 40-40v-56h104c13.238-.04 23.96-10.762 24-24V88c-.04-13.238-10.762-23.96-24-24zM328 32c66.274 0 120 53.726 120 120s-53.726 120-120 120-120-53.726-120-120c.079-66.241 53.759-119.921 120-120zm8 255.6V304h-16v-16.4c2.64.16 5.28.4 8 .4s5.36-.24 8-.4zM146.32 183.04l22.56-22.64c6.288-6.24 16.432-6.24 22.72 0 .316.327.61.674.88 1.04a135.216 135.216 0 002.16 17.12 13.91 13.91 0 01-3.04 4.48l-22.64 22.64-22.64-22.64zm11.36 33.92l-22.56 22.64c-6.288 6.24-16.432 6.24-22.72 0a15.865 15.865 0 01-4.72-11.28 16.047 16.047 0 014.72-11.36l22.64-22.64 22.64 22.64zm34.8-74.8a32.153 32.153 0 00-34.88 6.88l-56.56 56.64c-12.367 12.662-12.128 32.953.535 45.32 12.467 12.177 32.38 12.159 44.825-.04l53.52-53.6a136.301 136.301 0 0028.16 46.56c-24.328 41.992-78.091 56.312-120.083 31.985s-56.312-78.091-31.985-120.083c24.108-41.613 77.19-56.116 119.108-32.541a130.839 130.839 0 00-2.64 18.879zM32 88a8 8 0 018-8h172.8a136.215 136.215 0 00-13.2 27.52c-51.072-26.282-113.78-6.185-140.061 44.887s-6.185 113.78 44.887 140.061c47.956 24.678 106.821 8.601 135.574-37.028a134.531 134.531 0 0064 30.32V304h-8a8 8 0 00-8 8v8H32V88zm8 296a8 8 0 01-8-8v-40h256v48H40zm248 16v48h-64v-48h64zm-136 80v-8a8 8 0 018-8h128.8a38.732 38.732 0 007.44 16H152zm200-24c0 13.255-10.745 24-24 24s-24-10.745-24-24V320h48v136zm128-80a8 8 0 01-8 8H368v-48h112v40zm0-56H368v-8a8 8 0 00-8-8h-8v-18.24c73.773-13.066 122.986-83.462 109.92-157.235A135.665 135.665 0 00443.2 80H472a8 8 0 018 8v232z"/><path d="M448 352h16v16h-16v-16zm-32 0h16v16h-16v-16z"/></symbol><symbol viewBox="0 0 512 512" id="pills_001" xmlns="http://www.w3.org/2000/svg"><path d="M472.43 39.563C446.934 14.051 413.016 0 376.941 0c-36.078 0-69.984 14.051-95.492 39.563L160.504 160.504 39.555 281.461C14.051 306.973 0 340.891 0 376.957s14.051 69.984 39.555 95.48C65.051 497.949 98.969 512 135.043 512s69.984-14.051 95.488-39.563L351.48 351.496l120.95-120.957c25.504-25.512 39.551-59.43 39.551-95.496s-14.047-69.984-39.551-95.48zM205.07 446.977c-18.711 18.707-43.582 29.016-70.027 29.016-26.457 0-51.32-10.305-70.027-29.016s-29.004-43.57-29.004-70.016 10.305-51.328 29.004-70.035l108.219-108.227 140.055 140.07-108.22 108.208zm241.899-241.899L338.75 313.305l-140.055-140.07L306.914 65.023c18.707-18.707 43.578-29.016 70.027-29.016 26.453 0 51.316 10.305 70.023 29.016s29.004 43.57 29.004 70.016-10.3 51.328-28.999 70.039z"/><path d="M425.094 121.414c-5.742 0-11.387-2.742-14.875-7.824-8.426-12.309-22.324-19.641-37.191-19.641-12.027 0-23.324 4.676-31.836 13.188-7.035 7.031-18.43 7.031-25.461 0-7.031-7.035-7.031-18.43 0-25.461 15.309-15.316 35.652-23.738 57.297-23.738a81.066 81.066 0 0166.906 35.293c5.617 8.207 3.527 19.41-4.684 25.039a17.929 17.929 0 01-10.156 3.144z"/></symbol><symbol viewBox="0 0 512 512" id="pills_002" xmlns="http://www.w3.org/2000/svg"><path d="M454.88 295.312c-31.696-14.407-73.1-22.605-117.132-23.263C353.52 244.678 362 213.241 362 181c0-48.047-18.727-93.392-52.731-127.68C275.17 18.936 229.972 0 182 0 82.464 0 0 81.777 0 181c0 88.888 65.638 164.086 151.063 178.498A50.794 50.794 0 00151 362v60c0 26.255 20.479 49.946 57.663 66.708C241.984 503.728 285.786 512 332 512c95.689 0 180-35.907 180-90v-60c0-26.262-20.286-49.945-57.12-66.688zM30 181C30 99.149 99.607 30 182 30c35.907 0 68.903 12.772 94.754 34.033L64.265 276.522C42.835 250.374 30 217.024 30 181zm131.482 149.727c-28.673-3.73-54.768-15.53-76.016-32.98L297.928 85.285C319.208 111.356 332 144.702 332 181c0 33.6-10.988 66.119-31.053 92.27-47.229 3.891-112.891 19.786-139.465 57.457zm79.224-15.503l143.838 102.741C367.941 420.617 350.23 422 332 422c-86.424 0-151-31.677-151-60 0-16.87 22.914-34.929 59.706-46.776zM482 422c0 27.493-61.004 60-150 60-86.424 0-151-31.677-151-60v-9.238C207.22 432.288 258.887 452 332 452c73.044 0 124.093-19.69 150-39.028V422zm-58.703-13.222L279.518 306.079c16.19-2.6 33.825-4.079 52.482-4.079 89.028 0 150 32.526 150 60 0 22.435-36.61 39.56-58.703 46.778z"/></symbol><symbol viewBox="0 0 512 512" id="pills_003" xmlns="http://www.w3.org/2000/svg"><path d="M241.139 317.5h-50.123v-50.123c0-8.284-6.716-15-15-15s-15 6.716-15 15V317.5h-50.123c-8.284 0-15 6.716-15 15s6.716 15 15 15h50.123v50.123c0 8.284 6.716 15 15 15s15-6.716 15-15V347.5h50.123c8.284 0 15-6.716 15-15s-6.716-15-15-15z"/><path d="M492.626 301.692l-5.172-5.172c-24.991-24.992-65.599-25.999-91.754-1.772-1.788 1.656 2.807-2.9-44.684 44.592V195.27c0-22.518-21.205-42.27-45.38-42.27h-18.62v-34h9.889c16.041 0 30.111-13.792 30.111-29.515V31.423C327.016 16.59 314.139 0 296.905 0H55.127C37.893 0 25.016 16.59 25.016 31.423v58.062c0 15.723 14.07 29.515 30.111 29.515h7.889v34h-15.62c-23.4 0-47.38 19.284-47.38 42.27v272.71c0 22.216 23.469 44.02 47.38 44.02h258.24c6.441 0 12.978-1.554 19.045-4.462 24.146 9.282 51.888 3.83 70.646-14.927l97.3-97.3c25.81-25.811 25.81-67.808-.001-93.619zm-77.577 16.042c13.965-14.038 37.004-14.182 51.19.004l5.169 5.169c13.576 13.576 14.154 35.447 1.402 49.708-1.106 1.228 2.818-2.733-38.334 38.419l-56.364-56.364 36.937-36.936zM191.016 89V30h36.849v59h-36.849zm-69.261 0V30h39.261v59h-39.261zm175.261-57.268v56.976c-.463.454 2.448.292-39.151.292V30h37.955c.48.44 1.023 1.21 1.196 1.732zm-242 56.976V31.732c.173-.521.716-1.292 1.196-1.732h35.543v59c-38.834 0-36.277.161-36.739-.292zm38 30.292h164v34h-164v-34zm-63 348.98V195.27c0-4.398 8.76-12.27 17.38-12.27h258.24c7.776 0 15.38 7.026 15.38 12.27v174.071l-24.479 24.48c-24.07 24.07-25.683 62.211-4.86 88.179H47.396c-8.173 0-17.38-9.146-17.38-14.02zm344.098 3.418c-14.16 14.16-37.065 14.128-51.192 0l-5.172-5.172c-14.145-14.145-14.148-37.044 0-51.192l39.15-39.151 56.365 56.364-39.151 39.151z"/></symbol><symbol viewBox="0 0 512 512" id="pills_004" xmlns="http://www.w3.org/2000/svg"><path d="M31 0v512h450V0H31zm420 482H271v-31h-30v31H61V30h180v31h30V30h180v452z"/><path d="M136 151h60c24.813 0 45-20.187 45-45s-20.187-45-45-45h-60c-24.813 0-45 20.187-45 45s20.187 45 45 45zm75-45c0 8.271-6.729 15-15 15h-15V91h15c8.271 0 15 6.729 15 15zm-75-15h15v30h-15c-8.271 0-15-6.729-15-15s6.729-15 15-15zm135 15c0 24.813 20.187 45 45 45h60c24.813 0 45-20.187 45-45s-20.187-45-45-45h-60c-24.813 0-45 20.187-45 45zm120 0c0 8.271-6.729 15-15 15h-15V91h15c8.271 0 15 6.729 15 15zm-75-15h15v30h-15c-8.271 0-15-6.729-15-15s6.729-15 15-15zM136 301h60c24.813 0 45-20.187 45-45s-20.187-45-45-45h-60c-24.813 0-45 20.187-45 45s20.187 45 45 45zm75-45c0 8.271-6.729 15-15 15h-15v-30h15c8.271 0 15 6.729 15 15zm-75-15h15v30h-15c-8.271 0-15-6.729-15-15s6.729-15 15-15zm60 120h-60c-24.813 0-45 20.187-45 45s20.187 45 45 45h60c24.813 0 45-20.187 45-45s-20.187-45-45-45zm-75 45c0-8.271 6.729-15 15-15h15v30h-15c-8.271 0-15-6.729-15-15zm75 15h-15v-30h15c8.271 0 15 6.729 15 15s-6.729 15-15 15zm180-210h-60c-24.813 0-45 20.187-45 45s20.187 45 45 45h60c24.813 0 45-20.187 45-45s-20.187-45-45-45zm-75 45c0-8.271 6.729-15 15-15h15v30h-15c-8.271 0-15-6.729-15-15zm75 15h-15v-30h15c8.271 0 15 6.729 15 15s-6.729 15-15 15zm0 90h-60c-24.813 0-45 20.187-45 45s20.187 45 45 45h60c24.813 0 45-20.187 45-45s-20.187-45-45-45zm-75 45c0-8.271 6.729-15 15-15h15v30h-15c-8.271 0-15-6.729-15-15zm75 15h-15v-30h15c8.271 0 15 6.729 15 15s-6.729 15-15 15zM234.787 180.998L256 159.785l21.213 21.213L256 202.211zM234.78 331l21.212-21.214L277.205 331l-21.213 21.213z"/></symbol><symbol viewBox="0 0 511 511" id="price-tag" xmlns="http://www.w3.org/2000/svg"><path d="M464-1c-.6 0-1.1 0-1.7.1-3.3.3-76.2 7-103.6 60.2l-99-10.1c-24-2.4-47.5 5.9-64.5 23L24.3 242.4c-31.1 31.1-31 81.7 0 112.8l131 131.1c15.7 15.8 36.4 23.6 57 23.6 20.3 0 40.5-7.7 55.9-23 7.8-7.8 7.8-20.4 0-28.2-7.8-7.8-20.4-7.8-28.2 0-15.4 15.4-40.7 15.1-56.4-.6L52.5 327c-15.5-15.5-15.5-40.8 0-56.4l170.8-170.3c8.5-8.5 20.3-12.7 32.3-11.5l151.8 15.4 2 19.4c-27.7 10.3-54 12-54.6 12-11 .6-19.4 10-18.8 21 .6 10.6 9.4 18.9 19.9 18.9h1.1c1.3-.1 26.8-1.5 56.6-11.1l9.3 91.2c1.2 12-3 23.7-11.5 32.2l-97.4 96c-7.8 7.7-7.9 20.4-.2 28.2 7.7 7.8 20.4 7.9 28.2.2l97.4-96 .1-.1c17.1-17 25.4-40.6 23-64.5l-10.6-104c13.4-7.9 24.7-17.1 33.8-27.7 17.3-20.2 26-44.5 26-72.4v-.8C511.7 20.4 490.3-1 464-1zm7.8 48.6c0 22.3-8.1 40.4-24.5 54.7l-1.9-18.2c-1-9.4-8.4-16.9-17.8-17.8l-23.1-2.4c20.4-19.5 54.2-24.3 60.2-25 4 .4 7.1 3.7 7.1 7.8v.9zM310.1 291.3c-7.8 7.8-20.4 7.8-28.2 0-7.8-7.8-7.8-20.4 0-28.2 2.1-2.1 2.5-4.6 2.5-6.3-.1-2.7-1.3-5.4-3.3-7.4l-12.2-12.2c-3.2-3.2-7.2-4.9-11.5-5-3 0-7.2.7-11.1 4.6l-3.2 3.2c-6.5 6.5-6.7 17.2-.5 23.5l12.9 12.9c10.6 10.6 16.5 24.6 16.7 39.4.2 15-5.6 29.1-16.3 39.8l-1.5 1.5c-10.8 10.8-24.7 16.2-38.7 16.2-11.9 0-23.8-3.9-34-11.6l-8.4 8.1c-3.9 3.7-8.9 5.6-13.9 5.6-5.2 0-10.4-2-14.4-6.1-7.7-7.9-7.4-20.6.5-28.2l7.5-7.2c-8.4-9.1-13.2-20.7-13.4-32.9-.3-13.3 4.8-25.8 14.3-35.3 7.8-7.8 20.4-7.8 28.2 0 7.8 7.8 7.8 20.4 0 28.2-1.8 1.8-2.6 3.9-2.6 6.2.1 2.5 1.2 5.1 3.2 7.1l21 21c6.6 6.6 16.2 6.9 22.3.8l1.5-1.5c3-3 4.6-7 4.6-11.2 0-4.3-1.8-8.4-5-11.6l-12.9-12.9c-21.9-21.9-21.6-57.7.5-79.9l3.2-3.2c10.5-10.5 24.4-16.3 39.1-16.3h.6c10.2.1 20 3 28.6 8.2l8.6-8.8c7.7-7.9 20.3-8.1 28.2-.5 7.9 7.7 8.1 20.3.5 28.2l-8.5 8.7c5.7 8.1 8.9 17.6 9.2 27.5.4 13.4-4.6 26.1-14.1 35.6z"/></symbol><symbol viewBox="0 0 330 330" id="search_magnific" xmlns="http://www.w3.org/2000/svg"><path d="M325.606 304.394L223.328 202.117c16.707-21.256 26.683-48.041 26.683-77.111C250.011 56.077 193.934 0 125.005 0 56.077 0 0 56.077 0 125.006 0 193.933 56.077 250.01 125.005 250.01c29.07 0 55.855-9.975 77.11-26.681l102.278 102.277c2.929 2.93 6.768 4.394 10.607 4.394s7.678-1.464 10.606-4.394c5.859-5.857 5.859-15.355 0-21.212zM30 125.006C30 72.619 72.619 30 125.005 30c52.387 0 95.006 42.619 95.006 95.005s-42.619 95.004-95.006 95.004C72.619 220.01 30 177.391 30 125.006z"/></symbol><symbol viewBox="0 0 512 512" id="step_01" xmlns="http://www.w3.org/2000/svg"><path d="M328 256c57.4 0 104-46.6 104-104S385.4 48 328 48 224 94.6 224 152c.1 57.4 46.6 103.9 104 104zm0-192c48.6 0 88 39.4 88 88s-39.4 88-88 88-88-39.4-88-88c.1-48.6 39.4-87.9 88-88z"/><path d="M272 152c0-30.9 25.1-56 56-56V80c-39.7 0-72 32.3-72 72h16zm48 184h16v16h-16v-16zm0 32h16v96h-16v-96z"/><path d="M472 64h-40.5C383.1 6.8 297.5-.3 240.3 48.1c-5.7 4.8-11 10.2-15.9 15.9H40c-13.2 0-24 10.8-24 24v288c0 13.2 10.8 24 24 24h168v48h-48c-13.2 0-24 10.8-24 24v16c0 4.4 3.6 8 8 8h184c22.1 0 40-17.9 40-40v-56h104c13.2 0 24-10.8 24-24V88c0-13.2-10.8-24-24-24zM328 32c66.3 0 120 53.7 120 120s-53.7 120-120 120-120-53.7-120-120c.1-66.2 53.8-119.9 120-120zm8 255.6V304h-16v-16.4c2.6.2 5.3.4 8 .4s5.4-.2 8-.4zM146.3 183l22.6-22.6c6.3-6.2 16.4-6.2 22.7 0 .3.3.6.7.9 1 .4 5.7 1.1 11.5 2.2 17.1-.7 1.7-1.7 3.2-3 4.5L169 205.7 146.3 183zm11.4 34l-22.6 22.6c-6.3 6.2-16.4 6.2-22.7 0-3-3-4.7-7-4.7-11.3 0-4.3 1.7-8.4 4.7-11.4l22.6-22.6 22.7 22.7zm34.8-74.8c-12-4.9-25.7-2.2-34.9 6.9L101 205.7c-12.4 12.7-12.1 33 .5 45.3 12.5 12.2 32.4 12.2 44.8 0l53.5-53.6c6.2 17.3 15.7 33.1 28.2 46.6-24.3 42-78.1 56.3-120.1 32s-56.3-78.1-32-120.1c24.1-41.6 77.2-56.1 119.1-32.5-1.2 6.1-2.1 12.4-2.5 18.8zM32 88c0-4.4 3.6-8 8-8h172.8c-5.4 8.6-9.8 17.9-13.2 27.5-51.1-26.3-113.8-6.2-140.1 44.9s-6.2 113.8 44.9 140.1c48 24.7 106.8 8.6 135.6-37 18.2 15.6 40.3 26.1 64 30.3V304h-8c-4.4 0-8 3.6-8 8v8H32V88zm8 296c-4.4 0-8-3.6-8-8v-40h256v48H40zm248 16v48h-64v-48h64zm-136 80v-8c0-4.4 3.6-8 8-8h128.8c1.2 5.8 3.8 11.3 7.4 16H152zm200-24c0 13.3-10.7 24-24 24s-24-10.7-24-24V320h48v136zm128-80c0 4.4-3.6 8-8 8H368v-48h112v40zm0-56H368v-8c0-4.4-3.6-8-8-8h-8v-18.2c73.8-13.1 123-83.5 109.9-157.2-3.1-17.2-9.4-33.7-18.7-48.5H472c4.4 0 8 3.6 8 8V320z"/><path d="M448 352h16v16h-16v-16zm-32 0h16v16h-16v-16z"/></symbol><symbol viewBox="0 0 512 512" id="step_02" xmlns="http://www.w3.org/2000/svg"><path d="M89.9 355.5c4.1 0 7.5-3.4 7.5-7.5V15H339c4.1 0 7.5-3.4 7.5-7.5S343.1 0 339 0H96c-7.5 0-13.6 6.1-13.6 13.6V348c0 4.2 3.4 7.5 7.5 7.5zM416 0h-41.8c-4.1 0-7.5 3.4-7.5 7.5s3.4 7.5 7.5 7.5h40.4v476.8l-18.3-12c-4.5-3-10.4-3-14.9 0l-25.8 16.9-25.8-16.9c-4.5-3-10.4-3-14.9 0l-25.8 16.9-25.8-16.9c-4.5-3-10.4-3-14.9 0l-25.8 16.9-25.6-16.8c-4.5-3-10.4-3-14.9 0l-25.8 16.9-25.8-16.9c-4.5-3-10.4-3-14.9 0l-18.3 12V383.1c0-4.1-3.4-7.5-7.5-7.5s-7.5 3.4-7.5 7.5v111.3c0 5 2.7 9.6 7.1 12 4.4 2.4 9.7 2.2 13.9-.6l19.7-12.9 25.8 16.9c2.3 1.5 4.9 2.2 7.4 2.2s5.2-.7 7.4-2.2l25.8-16.9 25.8 16.9c4.5 3 10.4 3 14.9 0l25.8-16.9 25.8 16.9c4.5 3 10.4 3 14.9 0l25.8-16.9 25.8 16.9c4.5 3 10.4 3 14.9 0l25.8-16.9 19.7 12.9c4.2 2.7 9.5 3 13.9.6s7.1-7 7.1-12V13.6C429.6 6.1 423.5 0 416 0z"/><path d="M266 59.7h-20c-8.6 0-15.5 7-15.5 15.5v22.5c0 .3-.2.5-.5.5h-22.5c-8.6 0-15.5 7-15.5 15.5v20.1c0 8.6 7 15.5 15.5 15.5H230c.3 0 .5.2.5.5v22.5c0 8.6 7 15.5 15.5 15.5h20c8.5 0 15.5-7 15.5-15.5v-22.5c0-.3.2-.5.5-.5h22.5c8.5 0 15.5-7 15.5-15.5v-20.1c0-8.5-7-15.5-15.5-15.5H282c-.3 0-.5-.2-.5-.5V75.2c.1-8.5-6.9-15.5-15.5-15.5zm16.1 53.5h22.5c.3 0 .5.2.5.5v20.1c0 .3-.2.5-.5.5h-22.5c-8.5 0-15.5 7-15.5 15.5v22.5c0 .3-.2.5-.5.5H246c-.3 0-.5-.2-.5-.5v-22.5c0-8.6-7-15.5-15.5-15.5h-22.5c-.3 0-.5-.2-.5-.5v-20.1c0-.3.2-.5.5-.5H230c8.6 0 15.5-7 15.5-15.5V75.2c0-.3.2-.5.5-.5h20c.3 0 .5.2.5.5v22.5c0 8.6 7 15.5 15.6 15.5zm16.2 323.3c2.4 4.9 7.2 7.6 13.2 7.2 4.2-.2 7.3-2.4 9.8-4.4 2.4-1.9 4.6-4 6.7-6.2 4.1 5.6 11.4 8.9 19 8.4 6.9-.5 13.7-3.8 19.7-9.6 3-2.9 3-7.6.2-10.6s-7.6-3-10.6-.2c-3.4 3.3-7 5.2-10.3 5.5-2.7.2-5.7-1.3-6.4-3.2-.9-2.3.3-6.3 1.1-9.2 1.1-3.7-.9-7.7-4.5-9.1-3.6-1.4-7.7.2-9.4 3.7-3.5 7.2-8.7 13.8-14.9 18.8h-.1c.2-2.2 1.1-5.8 3.2-11.1 2.8-6.8 6-12.1 6.8-13 2.8-3.1 2.5-7.8-.6-10.6s-7.8-2.5-10.6.6c-9 10-18.6 19.3-28.9 27.9 8-17.7 16.4-35.3 25.2-52.5 1.9-3.7.4-8.2-3.3-10.1-3.7-1.9-8.2-.4-10.1 3.3-13.3 26-25.8 52.8-37.1 79.7-2.1 4.9 1.6 10.4 6.9 10.4 1.5 0 2.9-.4 4.2-1.3 10.2-6.9 19.9-14.5 29.1-22.6.1 3.1.6 5.8 1.7 8.2zm-25.5-193.6H148.6c-4.1 0-7.5-3.4-7.5-7.5s3.4-7.5 7.5-7.5h124.1c4.1 0 7.5 3.4 7.5 7.5s-3.3 7.5-7.4 7.5zm90.6 0h-26.8c-4.1 0-7.5-3.4-7.5-7.5s3.4-7.5 7.5-7.5h26.8c4.1 0 7.5 3.4 7.5 7.5s-3.4 7.5-7.5 7.5zm-142.1 43.7h-72.7c-4.1 0-7.5-3.4-7.5-7.5s3.4-7.5 7.5-7.5h72.7c4.1 0 7.5 3.4 7.5 7.5s-3.3 7.5-7.5 7.5zm142.1 0h-26.8c-4.1 0-7.5-3.4-7.5-7.5s3.4-7.5 7.5-7.5h26.8c4.1 0 7.5 3.4 7.5 7.5s-3.4 7.5-7.5 7.5zM272.8 330.3H148.6c-4.1 0-7.5-3.4-7.5-7.5s3.4-7.5 7.5-7.5h124.1c4.1 0 7.5 3.4 7.5 7.5s-3.3 7.5-7.4 7.5zm90.6 0h-26.8c-4.1 0-7.5-3.4-7.5-7.5s3.4-7.5 7.5-7.5h26.8c4.1 0 7.5 3.4 7.5 7.5s-3.4 7.5-7.5 7.5z"/></symbol><symbol viewBox="0 0 512 512" id="step_03" xmlns="http://www.w3.org/2000/svg"><path d="M476.2 286.9l-13.3-53c3.6-.8 6.3-4 6.3-7.8v-8.6c0-18.6-15.1-33.7-33.7-33.7h-60.4v-17.6c0-9.1-7.4-16.6-16.6-16.6H246.3l68.2-27.3c4.1-1.6 6.1-6.3 4.5-10.4-1.6-4.1-6.3-6.1-10.4-4.5l-55.9 22.3c17-10.9 33.9-22.9 40.3-31.4 12.5-16.4 9.3-39.8-7-52.3-16.4-12.5-39.8-9.3-52.3 7-9.1 12-21.2 45.6-28.9 69.3C197 98.6 185 65 175.9 53c-12.5-16.4-36-19.5-52.3-7s-19.5 36-7 52.3c6.4 8.4 23.3 20.4 40.3 31.4L101 107.4c-4.1-1.6-8.8.4-10.4 4.5-1.6 4.1.4 8.8 4.5 10.4l68.2 27.3H50.8c-9.1 0-16.6 7.4-16.6 16.6v145.4c0 4.4 3.6 8 8 8s8-3.6 8-8V166.2c0-.3.2-.5.5-.5h307.8c.3 0 .5.2.5.5v145.4c0 4.4 3.6 8 8 8s8-3.6 8-8v-9.1h94.6c11.6 0 21.5 7.6 24.9 18.2h-24.9c-4.4 0-8 3.6-8 8v17.1c0 13.9 11.3 25.1 25.1 25.1h9.1v35.3h-21c-6.9-19.9-25.8-34.2-48-34.2s-41.1 14.3-48 34.2h-3.9v-60.4c0-4.4-3.6-8-8-8s-8 3.6-8 8v60.4H192.8c-6.9-19.9-25.8-34.2-48-34.2s-41.1 14.3-48 34.2h-46c-.3 0-.5-.2-.5-.5V388H85c4.4 0 8-3.6 8-8s-3.6-8-8-8H8c-4.4 0-8 3.6-8 8s3.6 8 8 8h26.2v17.6c0 9.1 7.4 16.6 16.6 16.6h43.3v.5c0 28 22.8 50.8 50.8 50.8s50.8-22.8 50.8-50.8v-.5h180.7v.5c0 28 22.8 50.8 50.8 50.8s50.8-22.8 50.8-50.8v-.5h26c4.4 0 8-3.6 8-8v-85.5c0-21.1-15.6-38.7-35.8-41.8zM172.9 121.1c-31.6-19.7-41-28.7-43.8-32.3-7.1-9.3-5.3-22.7 4-29.9 3.9-2.9 8.4-4.4 12.9-4.4 6.4 0 12.8 2.9 17 8.4 7.8 10.2 19.9 44.4 27.9 69.1-5.4-3.2-11.6-7-18-10.9zm45.6 10.8c8-24.7 20.2-58.9 27.9-69.1 7.1-9.3 20.5-11.1 29.9-4 9.3 7.1 11.1 20.5 4 29.9-2.8 3.6-12.2 12.7-43.8 32.3-6.4 4-12.6 7.8-18 10.9zm156.7 68h60.4c9.7 0 17.6 7.9 17.6 17.6v.5h-78v-18.1zm0 86.6v-52.4h71.2l13.1 52.4h-84.3zm-230.4 171c-19.2 0-34.7-15.6-34.7-34.7s15.6-34.7 34.7-34.7 34.7 15.6 34.7 34.7-15.5 34.7-34.7 34.7zm282.2 0c-19.2 0-34.7-15.6-34.7-34.7S407.9 388 427 388c19.2 0 34.7 15.6 34.7 34.7s-15.5 34.8-34.7 34.8zm69-102.6h-9.1c-5 0-9.1-4.1-9.1-9.1v-9.1H496v18.2z"/><path d="M144.8 406.2c-9.1 0-16.6 7.4-16.6 16.6s7.4 16.6 16.6 16.6c9.1 0 16.6-7.4 16.6-16.6s-7.4-16.6-16.6-16.6zm282.2 0c-9.1 0-16.6 7.4-16.6 16.6s7.4 16.6 16.6 16.6 16.6-7.4 16.6-16.6-7.4-16.6-16.6-16.6zM333 372H213.2c-4.4 0-8 3.6-8 8s3.6 8 8 8H333c4.4 0 8-3.6 8-8s-3.6-8-8-8zm-205.3-34.2H25.1c-4.4 0-8 3.6-8 8s3.6 8 8 8h102.6c4.4 0 8-3.6 8-8s-3.5-8-8-8zm0-119.8H93.5c-4.4 0-8 3.6-8 8v68.4c0 4.4 3.6 8 8 8s8-3.6 8-8v-26.2h17.6c4.4 0 8-3.6 8-8s-3.6-8-8-8h-17.6V234h26.2c4.4 0 8-3.6 8-8s-3.5-8-8-8zm63.1 54c8-5.3 13.3-14.3 13.3-24.6 0-16.2-13.2-29.4-29.4-29.4h-21.4c-4.4 0-8 3.6-8 8v68.4c0 4.4 3.6 8 8 8s8-3.6 8-8v-17.6h13.3l14.7 22.1c1.5 2.3 4.1 3.6 6.7 3.6 1.5 0 3.1-.4 4.4-1.3 3.7-2.5 4.7-7.4 2.2-11.1L190.8 272zm-16-11.2h-13.4v-26.7h13.4c7.4 0 13.4 6 13.4 13.4-.1 7.3-6.1 13.3-13.4 13.3zm81.2 25.7h-26.2v-18.2h17.6c4.4 0 8-3.6 8-8s-3.6-8-8-8h-17.6v-18.2H256c4.4 0 8-3.6 8-8s-3.6-8-8-8h-34.2c-4.4 0-8 3.6-8 8v68.4c0 4.4 3.6 8 8 8H256c4.4 0 8-3.6 8-8s-3.6-8-8-8zm59.9 0h-26.2v-18.2h9.1c4.4 0 8-3.6 8-8s-3.6-8-8-8h-9.1v-18.2h26.2c4.4 0 8-3.6 8-8s-3.6-8-8-8h-34.2c-4.4 0-8 3.6-8 8v68.4c0 4.4 3.6 8 8 8h34.2c4.4 0 8-3.6 8-8s-3.6-8-8-8z"/></symbol><symbol viewBox="0 0 100 100" id="steps_circle" xmlns="http://www.w3.org/2000/svg"><path d="M50.1 99.5c-1.4 0-2.7-.1-4.1-.2-.3 0-.5-.3-.5-.5 0-.3.3-.5.5-.5 1.3.1 2.6.1 4 .2.8 0 1.7 0 2.5-.1.3 0 .5.2.5.5s-.2.5-.5.5c-.7.1-1.6.1-2.4.1zm6.5-.5c-.2 0-.5-.2-.5-.4 0-.3.2-.5.4-.6 1.3-.2 2.6-.4 3.9-.7.3-.1.5.1.6.4.1.3-.1.5-.4.6-1.3.3-2.7.6-4 .7zm-14.5-.2s-.1 0 0 0c-1.4-.2-2.7-.5-4-.8-.3-.1-.4-.3-.4-.6.1-.3.3-.4.6-.4 1.3.3 2.6.6 3.8.8.3 0 .5.3.4.6 0 .3-.2.4-.4.4zm22.2-1.5c-.2 0-.4-.1-.5-.4-.1-.3.1-.5.3-.6 1.2-.4 2.5-.8 3.7-1.3.3-.1.5 0 .7.3.1.3 0 .5-.3.7-1.2.5-2.5.9-3.8 1.3h-.1zm-29.9-.4h-.2c-1.3-.4-2.5-.9-3.7-1.5-.3-.1-.4-.4-.3-.7.1-.3.4-.4.7-.3 1.2.5 2.4 1 3.7 1.4.3.1.4.4.3.6-.1.4-.3.5-.5.5zm37.3-2.5c-.2 0-.4-.1-.4-.3-.1-.2 0-.5.2-.7 1.2-.6 2.3-1.2 3.4-1.9.2-.1.5-.1.7.2.1.2.1.5-.2.7-1.1.7-2.3 1.3-3.5 1.9-.1.1-.1.1-.2.1zm-44.6-.7c-.1 0-.2 0-.2-.1-1.2-.6-2.3-1.3-3.5-2-.2-.2-.3-.5-.1-.7.2-.2.5-.3.7-.1 1.1.7 2.2 1.4 3.4 2 .2.1.3.4.2.7-.2.1-.3.2-.5.2zm51.4-3.4c-.2 0-.3-.1-.4-.2-.2-.2-.1-.5.1-.7 1.1-.8 2.1-1.6 3.1-2.4.2-.2.5-.2.7.1.2.2.2.5-.1.7-1 .9-2.1 1.7-3.1 2.5-.1-.1-.2 0-.3 0zm-58.1-.9c-.1 0-.2 0-.3-.1-1.1-.8-2.1-1.7-3.1-2.6-.2-.2-.2-.5 0-.7.2-.2.5-.2.7 0 1 .9 2 1.7 3 2.5.2.2.3.5.1.7-.1.2-.2.2-.4.2zm64.1-4.3c-.1 0-.3 0-.4-.1-.2-.2-.2-.5 0-.7.9-.9 1.8-1.9 2.6-2.9.2-.2.5-.2.7-.1.2.2.2.5.1.7l-2.7 3c-.1 0-.2.1-.3.1zm-69.9-1c-.1 0-.3-.1-.4-.2-.9-1-1.8-2-2.6-3-.2-.2-.1-.5.1-.7.2-.2.5-.1.7.1.8 1 1.7 2 2.6 3 .2.2.2.5 0 .7-.2 0-.3.1-.4.1zm75-5.1c-.1 0-.2 0-.3-.1-.2-.2-.3-.5-.1-.7.8-1.1 1.5-2.2 2.1-3.3.1-.2.4-.3.7-.2.2.1.3.4.2.7-.7 1.1-1.4 2.3-2.2 3.4-.1.1-.3.2-.4.2zm-80-1.1c-.2 0-.3-.1-.4-.2-.7-1.1-1.4-2.3-2.1-3.4-.1-.2 0-.5.2-.7.2-.1.5 0 .7.2.6 1.1 1.3 2.3 2 3.4.2.2.1.5-.1.7-.1-.1-.2 0-.3 0zm84-5.7c-.1 0-.1 0-.2-.1-.2-.1-.4-.4-.2-.7.6-1.2 1.1-2.4 1.6-3.6.1-.3.4-.4.6-.3.3.1.4.4.3.6-.5 1.2-1 2.5-1.6 3.7-.1.3-.3.4-.5.4zM5.8 70.9c-.2 0-.4-.1-.5-.3-.5-1.2-1.1-2.5-1.5-3.7-.1-.3 0-.5.3-.6.3-.1.5 0 .6.3.4 1.2.9 2.5 1.5 3.6.1.3 0 .5-.3.7h-.1zm90.7-6.1h-.1c-.3-.1-.4-.4-.3-.6.4-1.3.7-2.5 1-3.8.1-.3.3-.4.6-.4.3.1.4.3.4.6-.3 1.3-.6 2.6-1 3.9-.2.1-.4.3-.6.3zM3.1 63.4c-.2 0-.4-.1-.5-.4l-.9-3.9c0-.3.1-.5.4-.6.3 0 .5.1.6.4.2 1.3.5 2.6.8 3.8.1.3-.1.5-.4.6.1.1.1.1 0 .1zm95-6.4c-.3 0-.5-.3-.5-.6.2-1.3.3-2.6.3-3.9 0-.3.2-.5.5-.5s.5.2.5.5c-.1 1.3-.2 2.7-.3 4 0 .3-.2.5-.5.5zM1.7 55.6c-.3 0-.5-.2-.5-.5-.1-1.3-.2-2.7-.2-4 0-.3.2-.5.5-.5s.5.2.5.5c0 1.3.1 2.6.2 3.9.1.3-.1.6-.5.6.1 0 0 0 0 0zM98.4 49c-.3 0-.5-.2-.5-.5l-.3-3.9c0-.3.2-.5.4-.6.3 0 .5.2.6.4.2 1.3.3 2.7.3 4 .1.4-.2.6-.5.6.1 0 .1 0 0 0zM1.6 47.7c-.3 0-.5-.3-.5-.5.1-1.3.2-2.7.4-4 0-.3.3-.5.6-.4.3 0 .5.3.4.6-.2 1.3-.3 2.6-.4 3.9 0 .2-.2.4-.5.4zm95.9-6.5c-.2 0-.4-.2-.5-.4-.3-1.3-.6-2.6-1-3.8-.1-.3.1-.5.3-.6.3-.1.5.1.6.3.4 1.3.7 2.6 1 3.9.1.3-.1.5-.4.6.1 0 0 0 0 0zM2.8 39.8h-.1c-.3-.1-.4-.3-.4-.6.3-1.3.7-2.6 1.1-3.9.1-.2.4-.4.6-.3.3.1.4.4.3.6-.4 1.2-.8 2.5-1.1 3.8 0 .3-.2.4-.4.4zm92.4-6.3c-.2 0-.4-.1-.5-.3-.5-1.2-1-2.4-1.6-3.6-.1-.2 0-.5.2-.7.2-.1.5 0 .7.2.6 1.2 1.1 2.4 1.6 3.7.1.3 0 .5-.3.6.1.1 0 .1-.1.1zM5.3 32.3h-.2c-.3-.1-.4-.4-.3-.7.5-1.2 1.1-2.5 1.7-3.6.1-.2.4-.3.7-.2.2.1.3.4.2.7-.6 1.2-1.2 2.4-1.7 3.6-.1.1-.2.2-.4.2zm86.5-5.9c-.2 0-.3-.1-.4-.2l-2.1-3.3c-.2-.2-.1-.5.1-.7.2-.2.5-.1.7.1.8 1.1 1.5 2.2 2.2 3.4.1.2.1.5-.2.7h-.3zM8.9 25.2c-.1 0-.2 0-.3-.1-.2-.1-.3-.5-.2-.7.7-1.1 1.5-2.2 2.3-3.3.2-.2.5-.3.7-.1.2.2.3.5.1.7-.8 1-1.5 2.1-2.2 3.2 0 .2-.2.3-.4.3zm78.3-5.3c-.1 0-.3-.1-.4-.2-.8-1-1.7-2-2.6-2.9-.2-.2-.2-.5 0-.7.2-.2.5-.2.7 0l2.7 3c.2.2.1.5-.1.7-.1.1-.2.1-.3.1zm-73.5-1c-.1 0-.2 0-.3-.1-.2-.2-.2-.5 0-.7.9-1 1.8-2 2.8-2.9.2-.2.5-.2.7 0 .2.2.2.5 0 .7-.9.9-1.9 1.9-2.7 2.8-.2.1-.4.2-.5.2zm67.9-4.6c-.1 0-.2 0-.3-.1-1-.9-2-1.7-3.1-2.4-.2-.3-.2-.6-.1-.8.2-.2.5-.3.7-.1 1.1.8 2.1 1.6 3.1 2.5.2.2.2.5.1.7-.1.1-.2.2-.4.2zm-62.2-.9c-.1 0-.3-.1-.4-.2-.2-.2-.1-.5.1-.7 1-.8 2.1-1.6 3.2-2.4.2-.2.5-.1.7.1.2.2.1.5-.1.7-1.1.7-2.1 1.5-3.1 2.4-.2 0-.3.1-.4.1zm55.8-3.8c-.1 0-.2 0-.3-.1-1.1-.7-2.3-1.3-3.4-1.9-.2-.1-.3-.4-.2-.7.1-.2.4-.3.7-.2 1.2.6 2.4 1.3 3.5 1.9.2.1.3.5.2.7-.1.2-.3.3-.5.3zM26 8.9c-.2 0-.3-.1-.4-.3-.1-.2-.1-.5.2-.7 1.2-.7 2.4-1.3 3.6-1.8.3-.1.5 0 .7.2.1.3 0 .5-.2.7-1.2.6-2.4 1.2-3.5 1.8-.3.1-.3.1-.4.1zM68.1 6h-.2c-1.2-.5-2.5-.9-3.7-1.3-.2-.1-.4-.4-.3-.7.1-.3.4-.4.6-.3 1.3.4 2.5.8 3.8 1.3.3.1.4.4.3.7-.1.2-.3.3-.5.3zm-34.9-.5c-.2 0-.4-.1-.5-.3-.1-.3 0-.5.3-.6 1.2-.5 2.5-.9 3.8-1.2.3-.1.5.1.6.3.1.3-.1.5-.3.6-1.3.4-2.5.8-3.7 1.2h-.2zm27.3-1.8h-.1c-1.3-.3-2.6-.5-3.9-.7-.3 0-.5-.3-.4-.6 0-.3.3-.5.6-.4 1.3.2 2.6.4 4 .7.2 0 .4.3.3.6 0 .2-.2.4-.5.4zm-19.7-.3c-.2 0-.4-.2-.5-.4-.1-.3.1-.5.4-.6 1.3-.3 2.6-.5 4-.6.3 0 .5.2.6.4s-.2.5-.4.6c-1.4.1-2.7.3-4.1.6.1 0 0 0 0 0zm11.9-.8c-1.3-.1-2.7-.1-4-.1-.3 0-.5-.2-.5-.5s.2-.5.5-.5c1.3 0 2.7 0 4 .1.3 0 .5.3.5.5 0 .3-.3.5-.5.5z"/></symbol><symbol viewBox="0 0 490 490" id="top_20_arrow" xmlns="http://www.w3.org/2000/svg"><path d="M427.787 334.025a32.592 32.592 0 01-32.668 32.668c-9.051 0-17.183-3.606-23.122-9.546s-9.546-14.071-9.546-23.122V173.653L117.933 418.17c-12.728 12.728-33.446 12.799-46.245 0-12.728-12.728-12.799-33.446 0-46.245l244.518-244.518-160.23.141a32.592 32.592 0 01-32.668-32.668 32.592 32.592 0 0132.668-32.668H395.12c8.627 0 16.971 3.394 23.122 9.546 6.152 6.152 9.617 14.425 9.546 23.122v239.145z"/></symbol><symbol class="bdsvg-inline--fa bdfa-twitter bdfa-w-16" viewBox="0 0 512 512" id="twitter" xmlns="http://www.w3.org/2000/svg"><path d="M459.37 151.716c.325 4.548.325 9.097.325 13.645 0 138.72-105.583 298.558-298.558 298.558-59.452 0-114.68-17.219-161.137-47.106 8.447.974 16.568 1.299 25.34 1.299 49.055 0 94.213-16.568 130.274-44.832-46.132-.975-84.792-31.188-98.112-72.772 6.498.974 12.995 1.624 19.818 1.624 9.421 0 18.843-1.3 27.614-3.573-48.081-9.747-84.143-51.98-84.143-102.985v-1.299c13.969 7.797 30.214 12.67 47.431 13.319-28.264-18.843-46.781-51.005-46.781-87.391 0-19.492 5.197-37.36 14.294-52.954 51.655 63.675 129.3 105.258 216.365 109.807-1.624-7.797-2.599-15.918-2.599-24.04 0-57.828 46.782-104.934 104.934-104.934 30.213 0 57.502 12.67 76.67 33.137 23.715-4.548 46.456-13.32 66.599-25.34-7.798 24.366-24.366 44.833-46.132 57.827 21.117-2.273 41.584-8.122 60.426-16.243-14.292 20.791-32.161 39.308-52.628 54.253z"/></symbol><symbol viewBox="0 0 512 512" id="warning" xmlns="http://www.w3.org/2000/svg"><path d="M506.2 365.6c-4.1-10.3-15.7-15.3-26-11.2s-15.3 15.7-11.2 26c5.2 13 3.5 27.9-4.6 39.8-8.1 11.9-21 18.7-35.4 18.7H83.1c-15.8 0-29.8-8.2-37.5-22-7.7-13.8-7.3-30.1 1-43.5l173-280.1C227.4 80.6 241.1 73 256 73c15 0 28.6 7.6 36.5 20.4l127.9 207.1c5.8 9.4 18.1 12.3 27.5 6.5 9.4-5.8 12.3-18.1 6.5-27.5L326.6 72.4C311.3 47.7 285 33 256 33s-55.3 14.7-70.5 39.3l-173 280.1c-16 26-16.7 57.4-1.9 84 14.9 26.7 42 42.6 72.5 42.6H429c27.9 0 52.9-13.2 68.6-36.3 15.5-22.9 18.7-51.7 8.6-77.1z"/><path d="M256 400c11 0 20-9 20-20s-9-20-20-20-20 9-20 20 9 20 20 20zm20-90V163c0-11-9-20-20-20s-20 9-20 20v147c0 11 9 20 20 20 11.1 0 20-9 20-20z"/></symbol></svg>